<svg xmlns="http://www.w3.org/2000/svg" xmlns:xlink="http://www.w3.org/1999/xlink" xmlns:fi="http://pattern.flaticon.com/" x="0" y="0" width="1920" height="1080" viewBox="0 0 1920 1080"><rect x="0px" y="0px" width="100%" height="100%" opacity="1" fill="#ffffff"/><defs><g transform="matrix(0.1849645266650378 0.04956109554830174 -0.04956109554830174 0.1849645266650378 -31.819804673305242 -55.113519581007054)" id="L1_124"><path d="M365,37.5c0-4.143,3.358-7.5,7.5-7.5s7.5,3.357,7.5,7.5h15c0-4.143,3.358-7.5,7.5-7.5   s7.5,3.357,7.5,7.5V135h15V15h-52.5c-4.142,0-7.5-3.357-7.5-7.5h-15v30H365z" fill="#185f8d"/><path d="M350,455h75v-62.521c-4.363,3.283-9.461,5.637-15,6.766V432.5c0,4.143-3.358,7.5-7.5,7.5   s-7.5-3.357-7.5-7.5h-15c0,4.143-3.358,7.5-7.5,7.5s-7.5-3.357-7.5-7.5h-15V455z" fill="#185f8d"/><path d="M410,275.755c5.539,1.129,10.637,3.483,15,6.766V260h-15V275.755z" fill="#185f8d"/><rect x="380px" y="400px" width="15px" height="32px" fill="#ffcc75"/><path d="M380,275h15v-22.5c0-4.143,3.358-7.5,7.5-7.5h30c12.407,0,22.5-10.094,22.5-22.5v-50   c0-12.406-10.093-22.5-22.5-22.5h-30c-4.142,0-7.5-3.357-7.5-7.5v-105h-15V275z" fill="#ffcc75"/><path d="M440,135.755V7.5c0-4.143-3.358-7.5-7.5-7.5h-60c-4.142,0-7.5,3.357-7.5,7.5s3.358,7.5,7.5,7.5H425   v120h-15V37.5c0-4.143-3.358-7.5-7.5-7.5s-7.5,3.357-7.5,7.5v105c0,4.143,3.358,7.5,7.5,7.5h30c12.407,0,22.5,10.094,22.5,22.5v50   c0,12.406-10.093,22.5-22.5,22.5h-30c-4.142,0-7.5,3.357-7.5,7.5V275h-15V37.5c0-4.143-3.358-7.5-7.5-7.5s-7.5,3.357-7.5,7.5v245   c0,4.143,3.358,7.5,7.5,7.5h30c12.407,0,22.5,10.094,22.5,22.5v50c0,12.406-10.093,22.5-22.5,22.5h-30c-4.142,0-7.5,3.357-7.5,7.5   v40c0,4.143,3.358,7.5,7.5,7.5s7.5-3.357,7.5-7.5V400h15v32.5c0,4.143,3.358,7.5,7.5,7.5s7.5-3.357,7.5-7.5v-33.255   c5.539-1.129,10.637-3.483,15-6.766V455h-75V7.5c0-4.143-3.358-7.5-7.5-7.5h-295C43.358,0,40,3.357,40,7.5v25H22.5   C10.093,32.5,0,42.594,0,55s10.093,22.5,22.5,22.5H40v75H22.5C10.093,152.5,0,162.594,0,175s10.093,22.5,22.5,22.5H40v75H22.5   C10.093,272.5,0,282.594,0,295s10.093,22.5,22.5,22.5H40v75H22.5C10.093,392.5,0,402.594,0,415s10.093,22.5,22.5,22.5H40v25   c0,4.143,3.358,7.5,7.5,7.5h385c4.142,0,7.5-3.357,7.5-7.5V259.245c17.096-3.484,30-18.635,30-36.745v-50   C470,154.39,457.096,139.239,440,135.755z M425,282.521c-4.363-3.283-9.461-5.637-15-6.766V260h15V282.521z M15,415   c0-4.136,3.364-7.5,7.5-7.5h50c4.136,0,7.5,3.364,7.5,7.5s-3.364,7.5-7.5,7.5h-50C18.364,422.5,15,419.136,15,415z M55,437.5h17.5   c12.407,0,22.5-10.094,22.5-22.5s-10.093-22.5-22.5-22.5H55v-75h17.5c12.407,0,22.5-10.094,22.5-22.5s-10.093-22.5-22.5-22.5H55   v-75h17.5c12.407,0,22.5-10.094,22.5-22.5s-10.093-22.5-22.5-22.5H55v-75h17.5C84.907,77.5,95,67.406,95,55S84.907,32.5,72.5,32.5   H55V15h280v440H55V437.5z M15,295c0-4.136,3.364-7.5,7.5-7.5h50c4.136,0,7.5,3.364,7.5,7.5s-3.364,7.5-7.5,7.5h-50   C18.364,302.5,15,299.136,15,295z M15,175c0-4.136,3.364-7.5,7.5-7.5h50c4.136,0,7.5,3.364,7.5,7.5s-3.364,7.5-7.5,7.5h-50   C18.364,182.5,15,179.136,15,175z M15,55c0-4.136,3.364-7.5,7.5-7.5h50c4.136,0,7.5,3.364,7.5,7.5s-3.364,7.5-7.5,7.5h-50   C18.364,62.5,15,59.136,15,55z" fill="#082947"/><path d="M350,432.5h15v-40c0-4.143,3.358-7.5,7.5-7.5h30c12.407,0,22.5-10.094,22.5-22.5v-50   c0-12.406-10.093-22.5-22.5-22.5h-30c-4.142,0-7.5-3.357-7.5-7.5v-245h-15V432.5z" fill="#f2ebd9"/><path d="M335,15H55v17.5h17.5C84.907,32.5,95,42.594,95,55S84.907,77.5,72.5,77.5H55v75h17.5   c12.407,0,22.5,10.094,22.5,22.5s-10.093,22.5-22.5,22.5H55v75h17.5c12.407,0,22.5,10.094,22.5,22.5s-10.093,22.5-22.5,22.5H55v75   h17.5c12.407,0,22.5,10.094,22.5,22.5s-10.093,22.5-22.5,22.5H55V455h280V15z" fill="#6da8d6"/><path d="M72.5,422.5c4.136,0,7.5-3.364,7.5-7.5s-3.364-7.5-7.5-7.5h-50c-4.136,0-7.5,3.364-7.5,7.5   s3.364,7.5,7.5,7.5H72.5z" fill="#98d9d5"/><path d="M72.5,302.5c4.136,0,7.5-3.364,7.5-7.5s-3.364-7.5-7.5-7.5h-50c-4.136,0-7.5,3.364-7.5,7.5   s3.364,7.5,7.5,7.5H72.5z" fill="#98d9d5"/><path d="M72.5,182.5c4.136,0,7.5-3.364,7.5-7.5s-3.364-7.5-7.5-7.5h-50c-4.136,0-7.5,3.364-7.5,7.5   s3.364,7.5,7.5,7.5H72.5z" fill="#98d9d5"/><path d="M72.5,62.5c4.136,0,7.5-3.364,7.5-7.5s-3.364-7.5-7.5-7.5h-50c-4.136,0-7.5,3.364-7.5,7.5   s3.364,7.5,7.5,7.5H72.5z" fill="#98d9d5"/></g><g transform="matrix(0.08500798791646957 0 0 0.08500798791646957 242.5 67.5)" id="L1_125"><path d="M425.929,26.935c-0.019,0.02-8.849,8.849-8.849,8.849l17.678,17.678l8.83-8.83   c0.019-0.02,8.848-8.848,8.848-8.848l-17.678-17.678L425.929,26.935z" fill="#ff6e1d"/><path d="M420.732,60.649 409.893,49.81 383.874,74.702 395.84,86.668z" fill="#f2484b"/><path d="M275.87,212.07l47.933-50.103c0.033-0.035,61.666-64.458,61.666-64.458l-12.436-12.436   l-64.429,61.639c-0.022,0.021-116.406,111.363-116.406,111.363l20.269,20.269l42.666-44.597c2.862-2.994,7.609-3.099,10.602-0.235   l10.37-10.839C273.111,219.81,273.006,215.063,275.87,212.07z" fill="#274b6d"/><path d="M327.986,179.292l-41.278,43.147c-1.473,1.54-3.445,2.315-5.42,2.315   c-1.864,0-3.73-0.69-5.184-2.081l-10.371,10.839c2.995,2.864,3.1,7.611,0.236,10.604l-47.966,50.138   c-1.395,1.458-3.318,2.293-5.336,2.315h-0.083c-1.988,0-3.896-0.789-5.304-2.196l-31.113-31.113   c-1.427-1.428-2.218-3.369-2.196-5.387c0.022-2.018,0.857-3.941,2.315-5.336l114.962-109.982   c-31.455-17.455-71.187-15.547-100.808,5.276c3.354,28.581-6.539,57.353-26.953,77.767c-13.751,13.751-31.108,22.8-50.196,26.169   c-17.215,3.037-34.713,1.298-50.869-5.028c-4.832,3.528-9.413,7.451-13.657,11.695C8.422,298.778,4.227,361.783,36.168,406.847   l56.593-70.72c1.332-1.666,3.312-2.686,5.441-2.803c2.136-0.114,4.209,0.677,5.718,2.185l31.112,31.112   c1.508,1.509,2.303,3.588,2.185,5.718c-0.117,2.13-1.137,4.109-2.803,5.441l-70.72,56.593   c45.063,31.942,108.068,27.749,148.412-12.598c4.246-4.246,8.169-8.827,11.696-13.657c-6.325-16.155-8.066-33.65-5.027-50.869   c3.368-19.087,12.417-36.445,26.168-50.196c20.414-20.414,49.178-30.305,77.767-26.952   C343.534,250.48,345.442,210.748,327.986,179.292z M105.581,299.604c-3.744,1.797-7.108,2.498-10.079,2.498   c-6.523,0-11.15-3.38-13.732-5.962c-2.929-2.929-2.929-7.678,0.001-10.606c2.929-2.929,7.678-2.928,10.606,0.001   c1.491,1.491,2.844,2.403,6.714,0.546c4.409-2.116,9.688-6.853,14.793-11.432c5.89-5.284,11.979-10.747,18.32-13.791   c11.966-5.742,20.054-0.294,23.813,3.463c2.929,2.93,2.929,7.678,0,10.607c-2.93,2.928-7.678,2.928-10.607,0   c-1.491-1.492-2.845-2.405-6.715-0.547c-4.409,2.116-9.688,6.853-14.794,11.433C118.012,291.097,111.922,296.561,105.581,299.604z    M134.74,304.689c-2.929-2.93-2.929-7.678,0-10.607c2.93-2.928,7.678-2.928,10.607,0l31.112,31.112   c2.929,2.93,2.929,7.678,0,10.607c-1.465,1.464-3.385,2.196-5.304,2.196s-3.839-0.732-5.304-2.196L134.74,304.689z    M209.684,338.337c-3.044,6.341-8.507,12.431-13.791,18.32c-4.579,5.104-9.315,10.384-11.432,14.793   c-1.856,3.869-0.944,5.223,0.546,6.714c2.93,2.929,2.93,7.678,0.001,10.606c-1.465,1.465-3.385,2.197-5.304,2.197   s-3.839-0.732-5.303-2.196c-3.759-3.758-9.205-11.848-3.464-23.812c3.043-6.341,8.507-12.431,13.79-18.319   c4.58-5.105,9.316-10.385,11.433-14.794c1.856-3.869,0.944-5.224-0.547-6.715c-2.929-2.93-2.929-7.678,0-10.607   c2.93-2.928,7.678-2.928,10.607,0C209.979,318.283,215.425,326.374,209.684,338.337z" fill="#ff6e1d"/><path d="M51.795,424.686l66.707-53.381l-19.264-19.264l-53.381,66.707c0.951,1.021,1.915,2.034,2.91,3.029   S50.773,423.735,51.795,424.686z" fill="#274b6d"/><path d="M145.409,274.928c2.93,2.928,7.678,2.928,10.607,0c2.929-2.93,2.929-7.678,0-10.607   c-3.759-3.757-11.847-9.205-23.813-3.463c-6.341,3.044-12.431,8.507-18.32,13.791c-5.104,4.579-10.384,9.315-14.793,11.432   c-3.87,1.857-5.223,0.945-6.714-0.546c-2.929-2.929-7.678-2.93-10.606-0.001c-2.93,2.929-2.93,7.678-0.001,10.606   c2.582,2.582,7.209,5.962,13.732,5.962c2.971,0,6.335-0.701,10.079-2.498c6.341-3.043,12.431-8.507,18.319-13.79   c5.105-4.58,10.385-9.316,14.794-11.433C142.565,272.523,143.918,273.436,145.409,274.928z" fill="#082947"/><path d="M195.613,314.525c-2.929,2.93-2.929,7.678,0,10.607c1.491,1.491,2.403,2.846,0.547,6.715   c-2.116,4.409-6.853,9.688-11.433,14.794c-5.283,5.889-10.747,11.979-13.79,18.319c-5.741,11.964-0.295,20.054,3.464,23.812   c1.464,1.464,3.384,2.196,5.303,2.196s3.839-0.732,5.304-2.197c2.929-2.929,2.929-7.678-0.001-10.606   c-1.49-1.491-2.402-2.845-0.546-6.714c2.116-4.409,6.853-9.688,11.432-14.793c5.284-5.89,10.747-11.979,13.791-18.32   c5.741-11.964,0.295-20.055-3.463-23.813C203.291,311.597,198.543,311.597,195.613,314.525z" fill="#082947"/><path d="M176.46,335.801c2.929-2.93,2.929-7.678,0-10.607l-31.112-31.112c-2.93-2.928-7.678-2.928-10.607,0   c-2.929,2.93-2.929,7.678,0,10.607l31.112,31.112c1.465,1.464,3.385,2.196,5.304,2.196S174.995,337.265,176.46,335.801z" fill="#f2ebd9"/><path d="M468.346,30.48L440.062,2.196c-2.93-2.928-7.678-2.928-10.607,0l-8.838,8.838l-1.768-1.768   c-2.93-2.928-7.678-2.928-10.607,0c-2.929,2.93-2.929,7.678,0,10.607l1.768,1.768l-8.839,8.839c-2.266,2.267-2.771,5.621-1.53,8.38   l-11.92,11.404l-16.026-16.026c-2.929-2.93-7.678-2.929-10.606-0.001c-2.93,2.929-2.93,7.678-0.001,10.606l15.792,15.792   l-74.353,71.132c-18.062-11.117-38.737-16.7-60.203-16.172c-23.614,0.588-45.929,8.519-64.53,22.935   c-2.183,1.691-3.259,4.445-2.802,7.169c4.246,25.298-4.019,51.201-22.109,69.292c-23.046,23.048-58.549,29.629-88.341,16.379   c-2.367-1.054-5.112-0.81-7.257,0.645c-6.828,4.63-13.263,9.95-19.125,15.813c-48.091,48.092-50.719,124.681-7.904,175.9   c0.027,0.033,0.054,0.065,0.081,0.097c2.461,2.938,5.063,5.798,7.823,8.559c25.441,25.44,58.859,38.161,92.278,38.161   c33.418,0,66.836-12.721,92.277-38.161c5.865-5.865,11.185-12.3,15.813-19.125c1.454-2.146,1.698-4.889,0.645-7.257   c-13.25-29.792-6.668-65.294,16.38-88.341c18.089-18.09,43.993-26.355,69.29-22.108c2.726,0.455,5.479-0.62,7.17-2.802   c14.416-18.602,22.347-40.916,22.935-64.53c0.533-21.462-5.054-42.142-16.172-60.204l78.738-82.304l15.793,15.792   c1.464,1.464,3.384,2.196,5.303,2.196s3.839-0.732,5.304-2.197c2.929-2.929,2.929-7.678-0.001-10.606l-16.027-16.026l3.798-3.97   c0.977,0.439,2.025,0.667,3.076,0.667c1.919,0,3.839-0.732,5.304-2.196l8.839-8.839l1.768,1.768   c1.465,1.464,3.385,2.196,5.304,2.196s3.839-0.732,5.304-2.196c2.929-2.93,2.929-7.678,0-10.607l-1.768-1.768l8.838-8.838   C471.275,38.158,471.275,33.41,468.346,30.48z M443.607,44.612c-0.019,0.02-8.849,8.849-8.849,8.849L417.08,35.784l8.83-8.83   c0.019-0.02,8.848-8.848,8.848-8.848l17.678,17.678L443.607,44.612z M244.944,307.053c-13.751,13.751-22.8,31.109-26.168,50.196   c-3.039,17.219-1.298,34.714,5.027,50.869c-3.527,4.83-7.45,9.411-11.696,13.657c-40.344,40.347-103.349,44.54-148.412,12.598   l70.72-56.593c1.666-1.332,2.686-3.312,2.803-5.441c0.118-2.13-0.677-4.209-2.185-5.718l-31.112-31.112   c-1.509-1.508-3.582-2.299-5.718-2.185c-2.13,0.117-4.109,1.137-5.441,2.803l-56.593,70.72   C4.227,361.783,8.422,298.778,48.766,258.434c4.244-4.244,8.825-8.167,13.657-11.695c16.156,6.326,33.654,8.065,50.869,5.028   c19.088-3.369,36.445-12.418,50.196-26.169c20.414-20.414,30.308-49.186,26.953-77.767c29.621-20.823,69.353-22.731,100.808-5.276   L176.287,252.538c-1.458,1.395-2.293,3.318-2.315,5.336c-0.021,2.018,0.77,3.959,2.196,5.387l31.113,31.113   c1.408,1.407,3.315,2.196,5.304,2.196h0.083c2.018-0.022,3.941-0.857,5.336-2.315l47.966-50.138   c2.864-2.993,2.759-7.74-0.234-10.604c-2.995-2.864-7.742-2.759-10.604,0.234l-42.666,44.597l-20.269-20.269l116.384-111.343   c0.022-0.021,64.451-61.659,64.451-61.659l12.436,12.436l-61.632,64.423c-0.033,0.035-47.966,50.138-47.966,50.138   c-2.864,2.993-2.759,7.74,0.234,10.603c1.454,1.391,3.32,2.082,5.184,2.082c1.975,0,3.947-0.775,5.42-2.315l41.278-43.147   c17.456,31.456,15.548,71.188-5.276,100.809C294.121,276.749,265.358,286.639,244.944,307.053z M99.237,352.041l19.264,19.264   l-66.707,53.381c-1.021-0.951-2.034-1.915-3.029-2.91s-1.959-2.007-2.91-3.029L99.237,352.041z M409.893,49.81l10.839,10.839   L395.84,86.668l-11.966-11.966L409.893,49.81z" fill="#082947"/></g><g transform="matrix(0.08510638028383255 0 0 0.08510638028383255 67.5 67.5)" id="L1_128"><path d="M315.393,312.75c-21.88-11.793-46.62-18.931-72.893-20.077V315c0,4.143-3.358,7.5-7.5,7.5   s-7.5-3.357-7.5-7.5v-22.327c-26.272,1.146-51.013,8.284-72.893,20.077l72.893,72.894V345c0-4.143,3.358-7.5,7.5-7.5   s7.5,3.357,7.5,7.5v40.644L315.393,312.75z" fill="#ffffff"/><path d="M153.75,156.25c0,44.802,36.449,81.25,81.25,81.25s81.25-36.448,81.25-81.25   c0-8.416-1.284-16.464-3.891-24.514c-9.108-4.539-19.365-6.933-29.85-6.933c-15.563,0-30.732,5.49-42.712,15.459   c-1.39,1.156-3.094,1.734-4.797,1.734s-3.407-0.578-4.797-1.734c-11.979-9.969-27.148-15.459-42.712-15.459   c-10.485,0-20.742,2.395-29.85,6.933C155.034,139.786,153.75,147.834,153.75,156.25z" fill="#f2ebd9"/><path d="M139.249,304.258C167.199,287.283,199.978,277.5,235,277.5s67.801,9.783,95.751,26.758   c0.602,0.272,1.177,0.622,1.704,1.061c7.469,4.648,14.584,9.811,21.295,15.443V282.5c-4.142,0-7.5-3.357-7.5-7.5V156.25   c0-23.276-7.09-45.43-20.25-64.037v33.045c3.518,10.175,5.25,20.329,5.25,30.992c0,53.072-43.178,96.25-96.25,96.25   s-96.25-43.178-96.25-96.25c0-10.663,1.732-20.817,5.25-30.992V92.213c-13.16,18.606-20.25,40.76-20.25,64.037V275   c0,4.143-3.358,7.5-7.5,7.5v38.263c6.711-5.632,13.826-10.795,21.295-15.443C138.073,304.88,138.647,304.53,139.249,304.258z" fill="#ffcc75"/><path d="M159,114.834c9.013-3.311,18.68-5.031,28.491-5.031c17.04,0,33.69,5.371,47.509,15.229   c13.819-9.858,30.47-15.229,47.509-15.229c9.811,0,19.478,1.721,28.491,5.031V47.5c0-4.143,3.358-7.5,7.5-7.5V25H159V114.834z" fill="#6da8d6"/><path d="M123.75,275V156.25c0-23.276,7.09-45.43,20.25-64.037v33.045c-3.518,10.175-5.25,20.329-5.25,30.992   c0,53.072,43.178,96.25,96.25,96.25s96.25-43.178,96.25-96.25c0-10.663-1.732-20.817-5.25-30.992V92.213   c13.16,18.606,20.25,40.76,20.25,64.037V275c0,4.143,3.358,7.5,7.5,7.5s7.5-3.357,7.5-7.5V156.25   c0-32.921-12.493-63.87-35.25-87.503V47.5c0-4.143-3.358-7.5-7.5-7.5s-7.5,3.357-7.5,7.5v67.334   c-9.013-3.311-18.68-5.031-28.491-5.031c-17.04,0-33.69,5.371-47.509,15.229c-13.819-9.858-30.47-15.229-47.509-15.229   c-9.811,0-19.478,1.721-28.491,5.031V25h226v129.758l-10.91,26.339c-1.585,3.827,0.232,8.214,4.059,9.799   c3.828,1.588,8.214-0.232,9.799-4.059l4.551-10.988l4.551,10.988c1.196,2.889,3.989,4.632,6.932,4.632   c0.957,0,1.929-0.185,2.867-0.573c3.827-1.585,5.644-5.972,4.059-9.799L400,154.758V25h12.5c4.142,0,7.5-3.357,7.5-7.5   s-3.358-7.5-7.5-7.5H400V7.5c0-4.143-3.358-7.5-7.5-7.5S385,3.357,385,7.5V10H57.5c-4.142,0-7.5,3.357-7.5,7.5s3.358,7.5,7.5,7.5   H144v43.747c-22.757,23.633-35.25,54.582-35.25,87.503V275c0,4.143,3.358,7.5,7.5,7.5S123.75,279.143,123.75,275z M187.491,124.803   c15.563,0,30.732,5.49,42.712,15.459c1.39,1.156,3.094,1.734,4.797,1.734s3.407-0.578,4.797-1.734   c11.979-9.969,27.148-15.459,42.712-15.459c10.485,0,20.742,2.395,29.85,6.933c2.607,8.05,3.891,16.099,3.891,24.514   c0,44.802-36.449,81.25-81.25,81.25s-81.25-36.448-81.25-81.25c0-8.416,1.284-16.464,3.891-24.514   C166.749,127.197,177.006,124.803,187.491,124.803z" fill="#082947"/><path d="M137.5,455h267.337c-2.444-56.051-32.163-105.136-76.177-134.303l-88.356,88.357   c-0.018,0.018-0.038,0.033-0.057,0.051c-0.156,0.153-0.317,0.301-0.486,0.44c-0.054,0.044-0.112,0.082-0.167,0.125   c-0.139,0.107-0.277,0.215-0.423,0.313c-0.049,0.033-0.101,0.06-0.151,0.091c-0.157,0.101-0.315,0.199-0.48,0.288   c-0.037,0.02-0.075,0.035-0.112,0.054c-0.181,0.093-0.363,0.182-0.552,0.261c-0.026,0.011-0.054,0.019-0.081,0.029   c-0.2,0.08-0.402,0.155-0.609,0.218c-0.026,0.008-0.054,0.013-0.08,0.021c-0.207,0.061-0.416,0.116-0.63,0.158   c-0.059,0.012-0.119,0.017-0.178,0.027c-0.182,0.032-0.363,0.063-0.549,0.082c-0.248,0.025-0.498,0.038-0.749,0.038   s-0.501-0.013-0.749-0.038c-0.186-0.019-0.368-0.05-0.549-0.082c-0.059-0.01-0.119-0.016-0.178-0.027   c-0.214-0.042-0.423-0.098-0.63-0.158c-0.026-0.008-0.054-0.013-0.08-0.021c-0.208-0.063-0.41-0.138-0.609-0.218   c-0.027-0.011-0.054-0.019-0.081-0.029c-0.189-0.079-0.371-0.168-0.552-0.261c-0.037-0.019-0.076-0.035-0.112-0.054   c-0.165-0.088-0.323-0.187-0.48-0.288c-0.05-0.031-0.102-0.059-0.151-0.091c-0.146-0.098-0.285-0.206-0.423-0.313   c-0.055-0.043-0.113-0.081-0.167-0.125c-0.169-0.139-0.33-0.287-0.486-0.44c-0.018-0.018-0.039-0.033-0.057-0.051l-88.356-88.357   C97.326,349.864,67.607,398.949,65.163,455H107.5c4.142,0,7.5,3.357,7.5,7.5h15C130,458.357,133.358,455,137.5,455z" fill="#185f8d"/><path d="M353.75,320.763c-6.711-5.632-13.826-10.795-21.295-15.443c-0.527-0.439-1.102-0.789-1.704-1.061   C302.801,287.283,270.022,277.5,235,277.5s-67.801,9.783-95.751,26.758c-0.602,0.272-1.177,0.622-1.704,1.061   c-7.469,4.648-14.584,9.811-21.295,15.443C75.778,354.726,50,405.655,50,462.5c0,4.143,3.358,7.5,7.5,7.5h50   c4.142,0,7.5-3.357,7.5-7.5s-3.358-7.5-7.5-7.5H65.163c2.444-56.051,32.163-105.136,76.177-134.303l88.356,88.357   c0.018,0.018,0.038,0.033,0.057,0.051c0.156,0.153,0.317,0.301,0.486,0.44c0.054,0.044,0.112,0.082,0.167,0.125   c0.139,0.107,0.277,0.215,0.423,0.313c0.049,0.033,0.101,0.06,0.151,0.091c0.157,0.101,0.315,0.199,0.48,0.288   c0.037,0.02,0.075,0.035,0.112,0.054c0.181,0.093,0.363,0.182,0.552,0.261c0.026,0.011,0.054,0.019,0.081,0.029   c0.2,0.08,0.402,0.155,0.609,0.218c0.026,0.008,0.054,0.013,0.08,0.021c0.207,0.061,0.416,0.116,0.63,0.158   c0.059,0.012,0.119,0.017,0.178,0.027c0.182,0.032,0.363,0.063,0.549,0.082c0.248,0.025,0.498,0.038,0.749,0.038   s0.501-0.013,0.749-0.038c0.186-0.019,0.368-0.05,0.549-0.082c0.059-0.01,0.119-0.016,0.178-0.027   c0.214-0.042,0.423-0.098,0.63-0.158c0.026-0.008,0.054-0.013,0.08-0.021c0.208-0.063,0.41-0.138,0.609-0.218   c0.027-0.011,0.054-0.019,0.081-0.029c0.189-0.079,0.371-0.168,0.552-0.261c0.037-0.019,0.076-0.035,0.112-0.054   c0.165-0.088,0.323-0.187,0.48-0.288c0.05-0.031,0.102-0.059,0.151-0.091c0.146-0.098,0.285-0.206,0.423-0.313   c0.055-0.043,0.113-0.081,0.167-0.125c0.169-0.139,0.33-0.287,0.486-0.44c0.018-0.018,0.039-0.033,0.057-0.051l88.356-88.357   c44.014,29.167,73.733,78.252,76.177,134.303H137.5c-4.142,0-7.5,3.357-7.5,7.5s3.358,7.5,7.5,7.5h275c4.142,0,7.5-3.357,7.5-7.5   C420,405.655,394.222,354.726,353.75,320.763z M235,337.5c-4.142,0-7.5,3.357-7.5,7.5v40.644l-72.893-72.894   c21.88-11.793,46.62-18.931,72.893-20.077V315c0,4.143,3.358,7.5,7.5,7.5s7.5-3.357,7.5-7.5v-22.327   c26.272,1.146,51.013,8.284,72.893,20.077L242.5,385.644V345C242.5,340.857,239.142,337.5,235,337.5z" fill="#082947"/></g><g transform="matrix(0.08510638028383255 0 0 0.08510638028383255 155 330)" id="L1_129"><path d="M151.25,392c-4.143,0-7.5,3.358-7.5,7.5V422c0,4.142,3.357,7.5,7.5,7.5s7.5-3.358,7.5-7.5v-22.5   C158.75,395.358,155.393,392,151.25,392z" fill="#082947"/><path d="M318.75,392c-4.143,0-7.5,3.358-7.5,7.5v30c0,4.142,3.357,7.5,7.5,7.5s7.5-3.358,7.5-7.5v-30   C326.25,395.358,322.893,392,318.75,392z" fill="#082947"/><path d="M27.5,142h103.75c4.143,0,7.5-3.358,7.5-7.5s-3.357-7.5-7.5-7.5H27.5c-4.143,0-7.5,3.358-7.5,7.5   S23.357,142,27.5,142z" fill="#082947"/><path d="M27.5,112h103.75c4.143,0,7.5-3.358,7.5-7.5s-3.357-7.5-7.5-7.5H27.5c-4.143,0-7.5,3.358-7.5,7.5   S23.357,112,27.5,112z" fill="#082947"/><rect x="370px" y="112px" width="25px" height="45px" fill="#f2484b"/><path d="M45,362h380V202H45V362z M67.5,217h253.125c4.143,0,7.5,3.358,7.5,7.5h15c0-4.142,3.357-7.5,7.5-7.5   H402.5c4.143,0,7.5,3.358,7.5,7.5v115c0,4.142-3.357,7.5-7.5,7.5h-335c-4.143,0-7.5-3.358-7.5-7.5v-115   C60,220.358,63.357,217,67.5,217z" fill="#ff6e1d"/><path d="M320.625,232H75v100h320V232h-44.375c-4.143,0-7.5-3.358-7.5-7.5h-15   C328.125,228.642,324.768,232,320.625,232z" fill="#ffcc75"/><rect x="15px" y="172px" width="440px" height="15px" fill="#ffcc75"/><path d="M306.933,141.976c-0.206,0.016-0.41,0.025-0.611,0.025c-3.869,0-7.151-2.974-7.468-6.898   l-5.168-64.097C292.68,58.535,281.261,48,268.75,48h-67.5c-12.511,0-23.93,10.535-24.937,23.006l-5.168,64.097   c-0.333,4.129-3.953,7.202-8.078,6.873L161.855,157h146.29L306.933,141.976z" fill="#6da8d6"/><path d="M67.5,347h335c4.143,0,7.5-3.358,7.5-7.5v-115c0-4.142-3.357-7.5-7.5-7.5h-51.875   c-4.143,0-7.5,3.358-7.5,7.5s3.357,7.5,7.5,7.5H395v100H75V232h245.625c4.143,0,7.5-3.358,7.5-7.5s-3.357-7.5-7.5-7.5H67.5   c-4.143,0-7.5,3.358-7.5,7.5v115C60,343.642,63.357,347,67.5,347z" fill="#082947"/><path d="M171.146,135.103l5.168-64.097C177.32,58.535,188.739,48,201.25,48h67.5   c12.511,0,23.93,10.535,24.937,23.006l5.168,64.097c0.316,3.924,3.599,6.898,7.468,6.898c0.201,0,0.405-0.008,0.61-0.025   c4.129-0.333,7.206-3.95,6.873-8.079L308.638,69.8C307,49.508,289.106,33,268.75,33h-67.5c-20.356,0-38.25,16.508-39.888,36.8   l-5.168,64.097c-0.333,4.128,2.744,7.745,6.873,8.079C167.192,142.304,170.813,139.231,171.146,135.103z" fill="#082947"/><path d="M462.5,157H410v-52.5c0-4.142-3.357-7.5-7.5-7.5H390V74.5c0-4.142-3.357-7.5-7.5-7.5   s-7.5,3.358-7.5,7.5V97h-12.5c-4.143,0-7.5,3.358-7.5,7.5V157H7.5c-4.143,0-7.5,3.358-7.5,7.5v30c0,4.142,3.357,7.5,7.5,7.5H30   v227.5c0,4.142,3.357,7.5,7.5,7.5s7.5-3.358,7.5-7.5V377h380v52.5c0,4.142,3.357,7.5,7.5,7.5s7.5-3.358,7.5-7.5V202h22.5   c4.143,0,7.5-3.358,7.5-7.5v-30C470,160.358,466.643,157,462.5,157z M455,187H15v-15h440V187z M425,362H45V202h380V362z M395,112   v45h-25v-45H395z" fill="#082947"/></g><g transform="matrix(0.1489361673593521 0 0 0.1489361673593521 315 139)" id="L1_130"><path d="M167.5,45.427V60.55c19.06,2.765,35.413,15.906,41.987,34.444c1.385,3.904-0.657,8.191-4.562,9.576   c-0.202,0.071-0.405,0.128-0.608,0.181c0.439,2.52,0.682,5.106,0.682,7.75s-0.242,5.23-0.682,7.75   c0.203,0.053,0.406,0.11,0.608,0.182c3.904,1.385,5.946,5.672,4.562,9.576C202.064,150.938,182.178,165,160,165   c-28.948,0-52.5-23.551-52.5-52.5c0-26.402,19.593-48.304,45-51.956V45.427c-33.702,3.744-60,32.389-60,67.073   c0,37.22,30.28,67.5,67.5,67.5s67.5-30.28,67.5-67.5C227.5,77.816,201.202,49.171,167.5,45.427z" fill="#c1e8e6"/><path d="M204.318,104.75c-3.732,0.979-7.655-1.041-8.967-4.743C190.046,85.049,175.84,75,160,75   c-20.678,0-37.5,16.822-37.5,37.5S139.322,150,160,150c15.84,0,30.046-10.049,35.351-25.007c1.312-3.702,5.236-5.724,8.967-4.744   c0.439-2.52,0.682-5.106,0.682-7.75S204.757,107.27,204.318,104.75z" fill="#6da8d6"/><path d="M276.711,380.257 268.382,455 351.618,455 343.289,380.257z" fill="#ffcc75"/><path d="M377.5,267.757c0-37.22-30.28-67.5-67.5-67.5s-67.5,30.28-67.5,67.5   c0,34.684,26.298,63.329,60,67.073v-15.117c-25.407-3.651-45-25.554-45-51.956c0-28.949,23.552-52.5,52.5-52.5   c22.178,0,42.064,14.063,49.487,34.993c1.385,3.904-0.657,8.191-4.562,9.576c-0.202,0.072-0.405,0.128-0.608,0.182   c0.439,2.52,0.682,5.106,0.682,7.75s-0.242,5.23-0.682,7.75c0.203,0.053,0.406,0.11,0.608,0.182   c3.904,1.385,5.946,5.672,4.562,9.576c-6.574,18.538-22.927,31.679-41.987,34.444v15.123   C351.202,331.086,377.5,302.441,377.5,267.757z" fill="#c1e8e6"/><path d="M354.318,260.007c-3.731,0.981-7.655-1.041-8.967-4.744c-5.305-14.958-19.511-25.007-35.351-25.007   c-20.678,0-37.5,16.822-37.5,37.5s16.822,37.5,37.5,37.5c15.84,0,30.046-10.049,35.351-25.007c1.312-3.702,5.236-5.724,8.967-4.744   c0.439-2.52,0.682-5.106,0.682-7.75S354.757,262.527,354.318,260.007z" fill="#6da8d6"/><path d="M462.5,0H7.5C3.357,0,0,3.358,0,7.5S3.357,15,7.5,15h145v15.356c-41.987,3.804-75,39.182-75,82.144   v208.397l-9.914-12.746c-2.543-3.269-7.255-3.857-10.524-1.315c-3.27,2.543-3.858,7.255-1.315,10.525l23.336,30   c0.014,0.018,0.031,0.034,0.045,0.052c0.147,0.186,0.303,0.363,0.467,0.534c0.023,0.024,0.044,0.051,0.068,0.075   c0.192,0.195,0.395,0.38,0.608,0.553c0.025,0.02,0.051,0.037,0.076,0.057c0.184,0.146,0.375,0.284,0.573,0.413   c0.057,0.037,0.115,0.07,0.173,0.105c0.172,0.105,0.348,0.205,0.529,0.297c0.066,0.033,0.132,0.065,0.199,0.096   c0.179,0.084,0.362,0.161,0.549,0.231c0.069,0.026,0.138,0.052,0.207,0.076c0.19,0.065,0.384,0.121,0.58,0.17   c0.069,0.018,0.137,0.038,0.207,0.053c0.205,0.046,0.414,0.08,0.625,0.108c0.063,0.009,0.124,0.021,0.187,0.029   c0.271,0.03,0.546,0.048,0.825,0.048c0.289-0.001,0.557-0.018,0.823-0.047c0.074-0.008,0.147-0.023,0.221-0.034   c0.198-0.027,0.393-0.059,0.586-0.102c0.082-0.018,0.163-0.042,0.244-0.063c0.181-0.047,0.361-0.098,0.536-0.157   c0.084-0.029,0.166-0.06,0.249-0.091c0.169-0.064,0.335-0.134,0.499-0.21c0.083-0.039,0.165-0.077,0.247-0.119   c0.159-0.081,0.313-0.169,0.465-0.261c0.078-0.047,0.157-0.092,0.234-0.142c0.16-0.105,0.313-0.218,0.464-0.334   c0.06-0.046,0.124-0.088,0.183-0.137c0.2-0.164,0.391-0.337,0.573-0.52c0.061-0.062,0.116-0.129,0.176-0.193   c0.122-0.132,0.242-0.265,0.354-0.406c0.022-0.028,0.048-0.052,0.07-0.08l23.332-30c2.543-3.27,1.954-7.982-1.315-10.525   c-3.271-2.542-7.983-1.954-10.524,1.316L92.5,320.899V159.847C107.441,181.084,132.119,195,160,195s52.559-13.916,67.5-35.153   v107.91c0,42.961,33.013,78.34,75,82.144v15.356H270c-3.82,0-7.03,2.872-7.454,6.669l-10,89.743   c-0.236,2.121,0.442,4.242,1.865,5.832c1.423,1.59,3.455,2.499,5.589,2.499h100.02c4.143,0,7.5-3.358,7.5-7.5   c0-0.475-0.044-0.938-0.128-1.389l-9.938-89.185c-0.424-3.797-3.634-6.669-7.454-6.669h-32.5V349.9   c41.987-3.804,75-39.182,75-82.144V15h70c4.143,0,7.5-3.358,7.5-7.5S466.643,0,462.5,0z M268.382,455l8.329-74.743h66.578   L351.618,455H268.382z M160,180c-37.22,0-67.5-30.28-67.5-67.5c0-34.684,26.298-63.329,60-67.073v15.117   c-25.407,3.651-45,25.554-45,51.956c0,28.949,23.552,52.5,52.5,52.5c22.178,0,42.064-14.063,49.487-34.993   c1.385-3.904-0.657-8.191-4.562-9.576c-0.202-0.072-0.405-0.128-0.608-0.182c-3.731-0.981-7.655,1.042-8.967,4.744   C190.046,139.951,175.84,150,160,150c-20.678,0-37.5-16.822-37.5-37.5S139.322,75,160,75c15.84,0,30.046,10.049,35.351,25.007   c1.312,3.702,5.235,5.723,8.967,4.743c0.203-0.053,0.406-0.11,0.608-0.181c3.904-1.385,5.946-5.672,4.562-9.576   C202.913,76.456,186.56,63.314,167.5,60.55V45.427c33.702,3.744,60,32.389,60,67.073C227.5,149.72,197.22,180,160,180z    M317.5,319.707c19.06-2.765,35.413-15.906,41.987-34.444c1.385-3.904-0.657-8.191-4.562-9.576   c-0.202-0.072-0.405-0.128-0.608-0.182c-3.731-0.98-7.655,1.042-8.967,4.744c-5.305,14.958-19.511,25.007-35.351,25.007   c-20.678,0-37.5-16.822-37.5-37.5s16.822-37.5,37.5-37.5c15.84,0,30.046,10.049,35.351,25.007c1.312,3.703,5.236,5.724,8.967,4.744   c0.203-0.053,0.406-0.11,0.608-0.182c3.904-1.385,5.946-5.672,4.562-9.576c-7.423-20.931-27.31-34.993-49.487-34.993   c-28.948,0-52.5,23.551-52.5,52.5c0,26.402,19.593,48.304,45,51.956v15.117c-33.702-3.744-60-32.389-60-67.073   c0-37.22,30.28-67.5,67.5-67.5s67.5,30.28,67.5,67.5c0,34.684-26.298,63.329-60,67.073V319.707z M377.5,220.41   c-14.941-21.237-39.619-35.153-67.5-35.153s-52.559,13.916-67.5,35.153V112.5c0-42.961-33.013-78.34-75-82.144V15h210V220.41z" fill="#082947"/></g><g transform="matrix(0.14412470443515626 -0.03861809816277436 0.03861809816277436 0.14412470443515626 132.13666505480091 150.25100071304595)" id="L1_131"><path d="M166.461,420.422l58.953-84.189l-19.435-27.754c-0.025-0.035-0.055-0.064-0.079-0.1   c-0.059-0.085-0.112-0.173-0.171-0.258l-5.401-7.714c-15.693,14.371-39.995,16.57-59.335,4.157   c-16.845-10.811-37.22-14.071-57.373-9.173c-21.669,5.264-40.505,19.382-51.678,38.733c-10.685,18.507-13.523,40.066-7.993,60.708   s18.769,37.894,37.276,48.578C97.229,464.197,142.471,454.315,166.461,420.422z M100.569,439.984   c-11.352-0.001-22.571-3.016-32.448-8.718c-15.035-8.681-25.79-22.696-30.284-39.467c-4.493-16.77-2.187-34.285,6.494-49.32   c11.577-20.052,33.166-32.508,56.342-32.508c11.348,0,22.567,3.015,32.445,8.718c15.035,8.681,25.79,22.696,30.284,39.467   c4.493,16.77,2.188,34.285-6.493,49.32C145.331,427.528,123.743,439.984,100.569,439.984z" fill="#ff6e1d"/><path d="M385.523,295.391c-20.152-4.896-40.528-1.638-57.374,9.173   c-22.352,14.349-51.342,9.191-65.996-11.738l-11.203-16c-6.327-9.029-18.82-11.229-27.851-4.906   c-8.991,6.296-11.209,18.702-4.993,27.725l84.596,120.81c23.968,33.862,69.21,43.746,105.215,22.958   c18.507-10.685,31.745-27.937,37.276-48.578s2.692-42.202-7.993-60.709C426.027,314.773,407.192,300.655,385.523,295.391z    M239.88,293.592c-0.308,0.31-0.641,0.6-1.01,0.859c-1.784,1.247-3.924,1.603-5.898,1.172c-1.777-0.388-3.42-1.41-4.546-3.018   c-2.376-3.394-1.551-8.069,1.842-10.445c0.555-0.389,1.147-0.684,1.755-0.903c1.632-0.592,3.395-0.586,4.993-0.035   c1.445,0.497,2.754,1.432,3.698,2.78C242.832,287.026,242.401,291.066,239.88,293.592z M431.304,391.8   c-4.494,16.771-15.249,30.786-30.284,39.467c-9.878,5.703-21.097,8.718-32.445,8.718c-23.176,0-44.766-12.456-56.342-32.508   c-8.681-15.035-10.986-32.551-6.493-49.32c4.494-16.771,15.249-30.786,30.284-39.467c9.878-5.703,21.097-8.718,32.445-8.718   c23.176,0,44.765,12.456,56.342,32.508C433.491,357.514,435.797,375.03,431.304,391.8z" fill="#f2484b"/><path d="M243.726,240.358l19.506,27.858c0.013,0.018,4.905,7.005,4.905,7.005L404.983,79.799   c7.277-10.394,10.072-22.998,7.869-35.493c-1.763-9.998-6.556-18.967-13.726-25.881L243.726,240.358z" fill="#98d9d5"/><path d="M105.969,69.771L70.016,18.426c-7.169,6.914-11.962,15.883-13.726,25.88   c-2.203,12.495,0.591,25.1,7.869,35.493L201.73,276.26c2.373-6.501,6.679-12.365,12.765-16.627   c6.089-4.263,13.075-6.304,19.998-6.309L123.176,94.346c-2.376-3.393-1.551-8.069,1.842-10.445l-8.604-12.287   C113.023,73.99,108.345,73.165,105.969,69.771z" fill="#ffffff"/><path d="M163.401,358.156c-4.494-16.771-15.249-30.786-30.284-39.467   c-9.878-5.703-21.097-8.718-32.445-8.718c-23.176,0-44.765,12.456-56.342,32.508c-8.681,15.035-10.987,32.551-6.494,49.32   c4.494,16.771,15.249,30.786,30.284,39.467c9.877,5.702,21.096,8.717,32.444,8.718c23.178,0,44.766-12.456,56.343-32.508   C165.589,392.441,167.894,374.926,163.401,358.156z M75.621,418.276c-11.565-6.678-19.838-17.459-23.294-30.358   c-3.457-12.899-1.683-26.373,4.995-37.938c8.906-15.425,25.517-25.008,43.352-25.008c8.718,0,17.344,2.319,24.945,6.708   c11.565,6.677,19.838,17.459,23.295,30.358c3.456,12.899,1.683,26.373-4.995,37.938c-8.907,15.426-25.518,25.009-43.352,25.008   C91.847,424.983,83.221,422.664,75.621,418.276z" fill="#082947"/><path d="M368.469,309.971c-11.348,0-22.567,3.015-32.445,8.718c-15.035,8.681-25.79,22.696-30.284,39.467   c-4.493,16.77-2.188,34.285,6.493,49.32c11.577,20.052,33.166,32.508,56.342,32.508c11.348,0,22.567-3.015,32.445-8.718   c15.035-8.681,25.79-22.696,30.284-39.467c4.493-16.77,2.187-34.285-6.494-49.32C413.234,322.428,391.645,309.971,368.469,309.971z    M416.815,387.918c-3.456,12.899-11.729,23.681-23.294,30.358c-7.601,4.388-16.227,6.708-24.945,6.708   c-17.834,0-34.446-9.583-43.352-25.008c-6.677-11.565-8.451-25.039-4.995-37.938c3.457-12.899,11.729-23.682,23.295-30.358   c7.601-4.389,16.227-6.708,24.945-6.708c17.834,0,34.446,9.583,43.352,25.008C418.497,361.545,420.271,375.018,416.815,387.918z" fill="#082947"/><path d="M450.19,326.625c-13.212-22.886-35.493-39.582-61.126-45.81   c-24.177-5.873-48.687-1.922-69.017,11.126c-14.091,9.042-31.856,7.11-42.525-3.972L417.27,88.402   c9.576-13.675,13.252-30.261,10.354-46.701c-2.899-16.441-12.027-30.77-25.702-40.345c-1.629-1.141-3.646-1.588-5.604-1.242   c-1.959,0.345-3.701,1.454-4.841,3.084L234.57,227.283L135.463,85.742c-2.375-3.393-7.052-4.218-10.445-1.842   c-3.393,2.376-4.218,7.053-1.842,10.445l111.317,158.979c-6.923,0.005-13.909,2.046-19.998,6.309   c-6.086,4.262-10.392,10.126-12.765,16.627L64.159,79.799c-7.277-10.394-10.072-22.998-7.869-35.493   c1.763-9.997,6.556-18.966,13.726-25.88l35.953,51.346c2.376,3.394,7.054,4.219,10.445,1.842c3.393-2.376,4.218-7.053,1.842-10.445   L77.665,3.199c-2.376-3.394-7.052-4.217-10.445-1.842c-13.675,9.575-22.803,23.903-25.702,40.344s0.778,33.026,10.354,46.701   L191.619,287.97c-10.668,11.083-28.433,13.014-42.524,3.972c-20.33-13.049-44.84-16.999-69.015-11.126   c-25.635,6.227-47.915,22.924-61.128,45.81c-12.688,21.977-16.059,47.579-9.491,72.09c6.568,24.512,22.288,44.999,44.265,57.687   c14.571,8.413,30.902,12.74,47.427,12.739c6.877,0,13.79-0.749,20.621-2.266c23.095-5.127,43.313-18.547,56.954-37.818   l55.844-79.749l55.867,79.781c13.618,19.24,33.837,32.66,56.932,37.787c6.833,1.517,13.742,2.267,20.622,2.266   c16.523,0,32.856-4.327,47.427-12.739c21.977-12.688,37.697-33.175,44.265-57.687S462.879,348.601,450.19,326.625z    M445.193,394.834c-5.531,20.642-18.769,37.894-37.276,48.578c-36.005,20.788-81.247,10.904-105.215-22.958l-84.596-120.81   c-6.215-9.022-3.997-21.429,4.993-27.725c9.03-6.323,21.523-4.123,27.851,4.906l11.203,16   c14.654,20.93,43.645,26.087,65.996,11.738c16.846-10.811,37.222-14.068,57.374-9.173c21.669,5.264,40.504,19.382,51.677,38.733   C447.885,352.632,450.724,374.192,445.193,394.834z M61.225,443.411c-18.507-10.685-31.745-27.937-37.276-48.578   s-2.692-42.201,7.993-60.708c11.173-19.352,30.009-33.47,51.678-38.733c20.153-4.898,40.528-1.638,57.373,9.173   c19.341,12.413,43.643,10.214,59.335-4.157l5.401,7.714c0.059,0.085,0.111,0.173,0.171,0.258c0.025,0.035,0.054,0.064,0.079,0.1   l19.435,27.754l-58.953,84.189C142.471,454.315,97.229,464.197,61.225,443.411z M404.983,79.799L268.137,275.221l-4.892-6.987   c-0.013-0.018-19.519-27.876-19.519-27.876l155.4-221.934c7.169,6.914,11.962,15.883,13.726,25.881   C415.055,56.801,412.26,69.405,404.983,79.799z" fill="#082947"/><path d="M237.016,281.221c-1.598-0.551-3.36-0.556-4.993,0.035c-0.608,0.22-1.2,0.515-1.755,0.903   c-3.393,2.376-4.218,7.052-1.842,10.445c1.125,1.607,2.769,2.63,4.546,3.018c1.974,0.431,4.114,0.074,5.9-1.176   c0.369-0.258,0.701-0.548,1.008-0.855c2.521-2.525,2.952-6.565,0.834-9.59C239.771,282.653,238.461,281.719,237.016,281.221z" fill="#082947"/></g><g transform="matrix(0.10638298094272614 0 0 0.10638298094272614 62.5 237.5)" id="L1_132"><path d="M379.102,358.687C408.7,324.255,425,280.329,425,235c0-104.766-85.234-190-190-190   S45,130.234,45,235s85.234,190,190,190c45.329,0,89.255-16.3,123.687-45.898c3.103-2.667,7.759-2.346,10.475,0.691   c3.676-3.409,7.223-6.955,10.632-10.631C376.756,366.446,376.434,361.79,379.102,358.687z M227.5,67.5c0-4.142,3.358-7.5,7.5-7.5   s7.5,3.358,7.5,7.5v30c0,4.142-3.358,7.5-7.5,7.5s-7.5-3.358-7.5-7.5V67.5z M97.5,242.5h-30c-4.142,0-7.5-3.358-7.5-7.5   s3.358-7.5,7.5-7.5h30c4.142,0,7.5,3.358,7.5,7.5S101.642,242.5,97.5,242.5z M242.5,402.5c0,4.142-3.358,7.5-7.5,7.5   s-7.5-3.358-7.5-7.5v-30c0-4.142,3.358-7.5,7.5-7.5s7.5,3.358,7.5,7.5V402.5z M358.744,143.076l-96.66,96.66   C259.831,252.65,248.548,262.5,235,262.5c-4.862,0-9.43-1.273-13.397-3.496l-78.481,78.481c-1.464,1.464-3.384,2.197-5.303,2.197   s-3.839-0.732-5.303-2.197c-2.929-2.929-2.929-7.678,0-10.606l78.481-78.481c-1.484-2.649-2.54-5.566-3.08-8.661l-64.841-64.841   c-2.929-2.929-2.929-7.678,0-10.606l21.213-21.213c2.929-2.929,7.678-2.929,10.606,0l64.841,64.841   c0.318,0.055,0.635,0.111,0.949,0.178l10.22-10.219c-2.926-2.929-2.926-7.676,0.003-10.604l76.016-76.016   c1.406-1.406,3.314-2.197,5.303-2.197s3.897,0.79,5.303,2.197l21.213,21.213C361.673,135.398,361.673,140.147,358.744,143.076z    M372.5,242.5c-4.142,0-7.5-3.358-7.5-7.5s3.358-7.5,7.5-7.5h30c4.142,0,7.5,3.358,7.5,7.5s-3.358,7.5-7.5,7.5H372.5z" fill="#ffffff"/><path d="M210.996,221.603c2.487-4.439,6.168-8.12,10.607-10.607l-52.01-52.01l-10.607,10.607   L210.996,221.603z" fill="#6da8d6"/><path d="M259.004,221.603l83.83-83.83l-10.607-10.607l-70.712,70.713c-2.929,2.929-7.678,2.929-10.606,0   c-0.003-0.003-10.222,10.216-10.222,10.216C248.552,209.755,255.185,214.788,259.004,221.603z" fill="#98d9d5"/><path d="M235,15C113.691,15,15,113.692,15,235c0,121.309,98.691,220,220,220s220-98.691,220-220   C455,113.692,356.309,15,235,15z M390.477,368.465c-2.7,3.141-7.434,3.499-10.577,0.798c-0.038-0.032-0.07-0.069-0.107-0.102   c-3.409,3.676-6.955,7.223-10.632,10.631c0.033,0.037,0.069,0.069,0.102,0.107c2.7,3.141,2.343,7.876-0.798,10.577   C331.313,422.413,283.915,440,235,440c-113.038,0-205-91.962-205-205c0-113.037,91.962-205,205-205s205,91.963,205,205   C440,283.915,422.413,331.313,390.477,368.465z" fill="#ff6e1d"/><path d="M401.17,68.83C356.785,24.444,297.771,0,235,0S113.215,24.444,68.83,68.83   C24.444,113.216,0,172.229,0,235s24.444,121.785,68.83,166.17C113.215,445.556,172.229,470,235,470s121.785-24.444,166.17-68.83   C445.556,356.785,470,297.771,470,235S445.556,113.216,401.17,68.83z M235,455c-121.309,0-220-98.691-220-220   c0-121.308,98.691-220,220-220s220,98.692,220,220C455,356.309,356.309,455,235,455z" fill="#082947"/><path d="M247.5,235c0-6.893-5.607-12.5-12.5-12.5s-12.5,5.607-12.5,12.5s5.607,12.5,12.5,12.5   S247.5,241.893,247.5,235z" fill="#ffcc75"/><path d="M235,105c4.142,0,7.5-3.358,7.5-7.5v-30c0-4.142-3.358-7.5-7.5-7.5s-7.5,3.358-7.5,7.5v30   C227.5,101.642,230.858,105,235,105z" fill="#082947"/><path d="M410,235c0-4.142-3.358-7.5-7.5-7.5h-30c-4.142,0-7.5,3.358-7.5,7.5s3.358,7.5,7.5,7.5h30   C406.642,242.5,410,239.142,410,235z" fill="#082947"/><path d="M235,365c-4.142,0-7.5,3.358-7.5,7.5v30c0,4.142,3.358,7.5,7.5,7.5s7.5-3.358,7.5-7.5v-30   C242.5,368.358,239.142,365,235,365z" fill="#082947"/><path d="M97.5,227.5h-30c-4.142,0-7.5,3.358-7.5,7.5s3.358,7.5,7.5,7.5h30c4.142,0,7.5-3.358,7.5-7.5   S101.642,227.5,97.5,227.5z" fill="#082947"/><path d="M337.53,111.256c-1.406-1.406-3.314-2.197-5.303-2.197s-3.897,0.79-5.303,2.197l-76.016,76.016   c-2.928,2.928-2.929,7.675-0.003,10.604c2.931,2.932,7.68,2.932,10.609,0.003l70.712-70.713l10.607,10.607l-83.83,83.83   c-3.819-6.815-10.452-11.848-18.318-13.509c-0.314-0.066-0.632-0.122-0.949-0.178l-64.841-64.841   c-2.929-2.929-7.678-2.929-10.606,0l-21.213,21.213c-2.929,2.929-2.929,7.678,0,10.606l64.841,64.841   c0.54,3.094,1.596,6.012,3.08,8.661l-78.481,78.481c-2.929,2.929-2.929,7.678,0,10.606c1.464,1.464,3.384,2.197,5.303,2.197   s3.839-0.732,5.303-2.197l78.481-78.481c3.967,2.223,8.535,3.496,13.397,3.496c13.548,0,24.831-9.85,27.083-22.763l96.66-96.66   c2.929-2.929,2.929-7.678,0-10.606L337.53,111.256z M221.603,210.996c-4.439,2.487-8.12,6.168-10.607,10.607l-52.01-52.01   l10.607-10.607L221.603,210.996z M222.5,235c0-6.893,5.607-12.5,12.5-12.5s12.5,5.607,12.5,12.5s-5.607,12.5-12.5,12.5   S222.5,241.893,222.5,235z" fill="#082947"/><path d="M235,30C121.962,30,30,121.963,30,235c0,113.038,91.962,205,205,205   c48.915,0,96.313-17.587,133.465-49.523c3.141-2.7,3.499-7.436,0.798-10.577c-0.032-0.038-0.069-0.07-0.102-0.107   c-2.716-3.037-7.371-3.358-10.475-0.691C324.255,408.7,280.329,425,235,425c-104.766,0-190-85.234-190-190S130.234,45,235,45   s190,85.234,190,190c0,45.329-16.3,89.255-45.898,123.687c-2.668,3.103-2.346,7.759,0.691,10.475   c0.037,0.033,0.069,0.069,0.107,0.102c3.143,2.7,7.877,2.342,10.577-0.798C422.413,331.313,440,283.915,440,235   C440,121.963,348.038,30,235,30z" fill="#082947"/></g><g transform="matrix(0.19200409948825836 0 0 0.19200409948825836 217.5 217.5)" id="L1_133"><path d="M196.87,424.495h75v-34.404c0-4.142,3.357-7.5,7.5-7.5v-15h-82.5V424.495z" fill="#f2ebd9"/><path d="M453.74,302.385H15v27.707c0,12.407,10.094,22.5,22.5,22.5h393.74c12.406,0,22.5-10.093,22.5-22.5   V302.385z" fill="#98d9d5"/><path d="M309.37,232.385c-4.143,0-7.5-3.358-7.5-7.5v-19.896c0-0.02,0.003-0.04,0.003-0.059   c0.001-0.109,0.01-0.217,0.016-0.325c0.008-0.158,0.017-0.315,0.035-0.471c0.089-0.726,0.259-1.394,0.523-2.029l23.878-57.309   c0.009-0.021,0.017-0.042,0.026-0.063l17.03-40.873c1.164-2.794,3.896-4.615,6.923-4.615s5.759,1.82,6.923,4.615l17.027,40.863   c0.012,0.028,0.024,0.056,0.035,0.085l23.874,57.296c0.265,0.635,0.434,1.303,0.516,1.983c0.025,0.202,0.034,0.36,0.042,0.517   c0.006,0.108,0.015,0.217,0.016,0.325c0,0.02,0.003,0.04,0.003,0.059v19.896c0,4.142-3.357,7.5-7.5,7.5l0,15h22.5V84.245H286.87   v163.14h22.5V232.385z" fill="#f2ebd9"/><path d="M15,287.385h438.74V66.745c0-12.407-10.094-22.5-22.5-22.5H37.5c-12.406,0-22.5,10.093-22.5,22.5   V287.385z M271.87,76.745c0-4.142,3.357-7.5,7.5-7.5h141.87c4.143,0,7.5,3.358,7.5,7.5v178.14c0,4.142-3.357,7.5-7.5,7.5H279.37   c-4.143,0-7.5-3.358-7.5-7.5V76.745z M47.5,69.245H240c4.143,0,7.5,3.358,7.5,7.5s-3.357,7.5-7.5,7.5H47.5   c-4.143,0-7.5-3.358-7.5-7.5S43.357,69.245,47.5,69.245z M47.5,104.873H240c4.143,0,7.5,3.358,7.5,7.5s-3.357,7.5-7.5,7.5H47.5   c-4.143,0-7.5-3.358-7.5-7.5S43.357,104.873,47.5,104.873z M47.5,140.501h96.25c4.143,0,7.5,3.358,7.5,7.5s-3.357,7.5-7.5,7.5H47.5   c-4.143,0-7.5-3.358-7.5-7.5S43.357,140.501,47.5,140.501z M47.5,176.129H240c4.143,0,7.5,3.358,7.5,7.5s-3.357,7.5-7.5,7.5H47.5   c-4.143,0-7.5-3.358-7.5-7.5S43.357,176.129,47.5,176.129z M47.5,211.757H240c4.143,0,7.5,3.358,7.5,7.5s-3.357,7.5-7.5,7.5H47.5   c-4.143,0-7.5-3.358-7.5-7.5S43.357,211.757,47.5,211.757z M47.5,247.385h96.25c4.143,0,7.5,3.358,7.5,7.5s-3.357,7.5-7.5,7.5H47.5   c-4.143,0-7.5-3.358-7.5-7.5S43.357,247.385,47.5,247.385z" fill="#ffffff"/><path d="M431.24,29.245H37.5c-20.678,0-37.5,16.822-37.5,37.5v263.346c0,20.678,16.822,37.5,37.5,37.5   h144.37v56.904h-32.5c-4.143,0-7.5,3.358-7.5,7.5s3.357,7.5,7.5,7.5h170c4.143,0,7.5-3.358,7.5-7.5s-3.357-7.5-7.5-7.5h-32.5   v-34.404c0-4.142-3.357-7.5-7.5-7.5s-7.5,3.358-7.5,7.5v34.404h-75v-56.904h234.37c20.678,0,37.5-16.822,37.5-37.5V66.745   C468.74,46.067,451.918,29.245,431.24,29.245z M431.24,352.591H37.5c-12.406,0-22.5-10.093-22.5-22.5v-27.707h438.74v27.707   C453.74,342.498,443.646,352.591,431.24,352.591z M37.5,44.245h393.74c12.406,0,22.5,10.093,22.5,22.5v220.64H15V66.745   C15,54.338,25.094,44.245,37.5,44.245z" fill="#082947"/><path d="M47.5,84.245H240c4.143,0,7.5-3.358,7.5-7.5s-3.357-7.5-7.5-7.5H47.5c-4.143,0-7.5,3.358-7.5,7.5   S43.357,84.245,47.5,84.245z" fill="#082947"/><path d="M47.5,119.873H240c4.143,0,7.5-3.358,7.5-7.5s-3.357-7.5-7.5-7.5H47.5c-4.143,0-7.5,3.358-7.5,7.5   S43.357,119.873,47.5,119.873z" fill="#082947"/><path d="M47.5,155.501h96.25c4.143,0,7.5-3.358,7.5-7.5s-3.357-7.5-7.5-7.5H47.5c-4.143,0-7.5,3.358-7.5,7.5   S43.357,155.501,47.5,155.501z" fill="#082947"/><path d="M47.5,191.129H240c4.143,0,7.5-3.358,7.5-7.5s-3.357-7.5-7.5-7.5H47.5c-4.143,0-7.5,3.358-7.5,7.5   S43.357,191.129,47.5,191.129z" fill="#082947"/><path d="M47.5,226.757H240c4.143,0,7.5-3.358,7.5-7.5s-3.357-7.5-7.5-7.5H47.5c-4.143,0-7.5,3.358-7.5,7.5   S43.357,226.757,47.5,226.757z" fill="#082947"/><path d="M47.5,262.385h96.25c4.143,0,7.5-3.358,7.5-7.5s-3.357-7.5-7.5-7.5H47.5c-4.143,0-7.5,3.358-7.5,7.5   S43.357,262.385,47.5,262.385z" fill="#082947"/><path d="M383.74,224.885v-9.054c-2.746,0.589-5.566,0.906-8.419,0.906c-6.234,0-12.222-1.427-17.517-4.039   v12.188c0,4.142-3.357,7.5-7.5,7.5s-7.5-3.358-7.5-7.5v-12.187c-5.295,2.611-11.281,4.038-17.516,4.038   c-2.853,0-5.673-0.317-8.419-0.906v9.054c0,4.142-3.357,7.5-7.5,7.5v15h81.87v-15C387.098,232.385,383.74,229.027,383.74,224.885z" fill="#98d9d5"/><path d="M344.499,140.18 356.111,140.18 350.305,126.245z" fill="#98d9d5"/><path d="M381.444,200.977l-19.083-45.797h-24.113l-19.082,45.797c1.977,0.497,4.033,0.759,6.122,0.759   c7.763,0,14.818-3.454,18.874-9.239c1.404-2.002,3.696-3.195,6.142-3.195s4.737,1.192,6.141,3.194   c4.057,5.786,11.113,9.24,18.876,9.24C377.411,201.736,379.467,201.474,381.444,200.977z" fill="#ffcc75"/><path d="M316.87,224.885v-9.054c2.746,0.589,5.566,0.906,8.419,0.906c6.234,0,12.221-1.427,17.516-4.038   v12.187c0,4.142,3.357,7.5,7.5,7.5s7.5-3.358,7.5-7.5v-12.188c5.295,2.611,11.282,4.039,17.517,4.039   c2.853,0,5.673-0.317,8.419-0.906v9.054c0,4.142,3.357,7.5,7.5,7.5c4.143,0,7.5-3.358,7.5-7.5v-19.896   c0-0.02-0.003-0.04-0.003-0.059c-0.001-0.109-0.01-0.217-0.016-0.325c-0.008-0.158-0.017-0.315-0.035-0.471   c-0.089-0.726-0.259-1.394-0.523-2.029l-23.874-57.296c-0.012-0.028-0.023-0.056-0.035-0.085l-17.027-40.863   c-1.164-2.795-3.896-4.615-6.923-4.615s-5.759,1.821-6.923,4.615l-17.03,40.873c-0.009,0.021-0.017,0.042-0.026,0.063   l-23.878,57.309c-0.265,0.635-0.434,1.303-0.516,1.983c-0.025,0.202-0.034,0.36-0.042,0.517c-0.006,0.108-0.015,0.217-0.016,0.325   c0,0.02-0.003,0.04-0.003,0.059v19.896c0,4.142,3.357,7.5,7.5,7.5S316.87,229.027,316.87,224.885z M356.445,192.496   c-1.403-2.002-3.695-3.194-6.141-3.194s-4.737,1.192-6.142,3.195c-4.056,5.785-11.111,9.239-18.874,9.239   c-2.089,0-4.146-0.261-6.122-0.759l19.082-45.797h24.113l19.083,45.797c-1.977,0.497-4.033,0.759-6.122,0.759   C367.559,201.736,360.502,198.282,356.445,192.496z M344.499,140.18l5.806-13.935l5.806,13.935H344.499z" fill="#082947"/><path d="M279.37,262.385h141.87c4.143,0,7.5-3.358,7.5-7.5V76.745c0-4.142-3.357-7.5-7.5-7.5H279.37   c-4.143,0-7.5,3.358-7.5,7.5v178.14C271.87,259.027,275.228,262.385,279.37,262.385z M286.87,84.245h126.87v163.14H286.87V84.245z" fill="#082947"/></g></defs><g fi:class="KUsePattern" opacity="0.18"><pattern id="pattern_L1_124" width="350" height="350" patternUnits="userSpaceOnUse"><use xlink:href="#L1_124" x="-350" y="-350"/><use xlink:href="#L1_124" x="0" y="-350"/><use xlink:href="#L1_124" x="350" y="-350"/><use xlink:href="#L1_124" x="-350" y="0"/><use xlink:href="#L1_124" x="0" y="0"/><use xlink:href="#L1_124" x="350" y="0"/><use xlink:href="#L1_124" x="-350" y="350"/><use xlink:href="#L1_124" x="0" y="350"/><use xlink:href="#L1_124" x="350" y="350"/></pattern><rect x="0" y="0" width="100%" height="100%" fill="url(#pattern_L1_124)"/></g><g fi:class="KUsePattern" opacity="0.2"><pattern id="pattern_L1_125" width="350" height="350" patternUnits="userSpaceOnUse"><use xlink:href="#L1_125" x="-350" y="-350"/><use xlink:href="#L1_125" x="0" y="-350"/><use xlink:href="#L1_125" x="350" y="-350"/><use xlink:href="#L1_125" x="-350" y="0"/><use xlink:href="#L1_125" x="0" y="0"/><use xlink:href="#L1_125" x="350" y="0"/><use xlink:href="#L1_125" x="-350" y="350"/><use xlink:href="#L1_125" x="0" y="350"/><use xlink:href="#L1_125" x="350" y="350"/></pattern><rect x="0" y="0" width="100%" height="100%" fill="url(#pattern_L1_125)"/></g><g fi:class="KUsePattern" opacity="0.22"><pattern id="pattern_L1_128" width="350" height="350" patternUnits="userSpaceOnUse"><use xlink:href="#L1_128" x="-350" y="-350"/><use xlink:href="#L1_128" x="0" y="-350"/><use xlink:href="#L1_128" x="350" y="-350"/><use xlink:href="#L1_128" x="-350" y="0"/><use xlink:href="#L1_128" x="0" y="0"/><use xlink:href="#L1_128" x="350" y="0"/><use xlink:href="#L1_128" x="-350" y="350"/><use xlink:href="#L1_128" x="0" y="350"/><use xlink:href="#L1_128" x="350" y="350"/></pattern><rect x="0" y="0" width="100%" height="100%" fill="url(#pattern_L1_128)"/></g><g fi:class="KUsePattern" opacity="0.2"><pattern id="pattern_L1_129" width="350" height="350" patternUnits="userSpaceOnUse"><use xlink:href="#L1_129" x="-350" y="-350"/><use xlink:href="#L1_129" x="0" y="-350"/><use xlink:href="#L1_129" x="350" y="-350"/><use xlink:href="#L1_129" x="-350" y="0"/><use xlink:href="#L1_129" x="0" y="0"/><use xlink:href="#L1_129" x="350" y="0"/><use xlink:href="#L1_129" x="-350" y="350"/><use xlink:href="#L1_129" x="0" y="350"/><use xlink:href="#L1_129" x="350" y="350"/></pattern><rect x="0" y="0" width="100%" height="100%" fill="url(#pattern_L1_129)"/></g><g fi:class="KUsePattern" opacity="0.2"><pattern id="pattern_L1_130" width="350" height="350" patternUnits="userSpaceOnUse"><use xlink:href="#L1_130" x="-350" y="-350"/><use xlink:href="#L1_130" x="0" y="-350"/><use xlink:href="#L1_130" x="350" y="-350"/><use xlink:href="#L1_130" x="-350" y="0"/><use xlink:href="#L1_130" x="0" y="0"/><use xlink:href="#L1_130" x="350" y="0"/><use xlink:href="#L1_130" x="-350" y="350"/><use xlink:href="#L1_130" x="0" y="350"/><use xlink:href="#L1_130" x="350" y="350"/></pattern><rect x="0" y="0" width="100%" height="100%" fill="url(#pattern_L1_130)"/></g><g fi:class="KUsePattern" opacity="0.2"><pattern id="pattern_L1_131" width="350" height="350" patternUnits="userSpaceOnUse"><use xlink:href="#L1_131" x="-350" y="-350"/><use xlink:href="#L1_131" x="0" y="-350"/><use xlink:href="#L1_131" x="350" y="-350"/><use xlink:href="#L1_131" x="-350" y="0"/><use xlink:href="#L1_131" x="0" y="0"/><use xlink:href="#L1_131" x="350" y="0"/><use xlink:href="#L1_131" x="-350" y="350"/><use xlink:href="#L1_131" x="0" y="350"/><use xlink:href="#L1_131" x="350" y="350"/></pattern><rect x="0" y="0" width="100%" height="100%" fill="url(#pattern_L1_131)"/></g><g fi:class="KUsePattern" opacity="0.17"><pattern id="pattern_L1_132" width="350" height="350" patternUnits="userSpaceOnUse"><use xlink:href="#L1_132" x="-350" y="-350"/><use xlink:href="#L1_132" x="0" y="-350"/><use xlink:href="#L1_132" x="350" y="-350"/><use xlink:href="#L1_132" x="-350" y="0"/><use xlink:href="#L1_132" x="0" y="0"/><use xlink:href="#L1_132" x="350" y="0"/><use xlink:href="#L1_132" x="-350" y="350"/><use xlink:href="#L1_132" x="0" y="350"/><use xlink:href="#L1_132" x="350" y="350"/></pattern><rect x="0" y="0" width="100%" height="100%" fill="url(#pattern_L1_132)"/></g><g fi:class="KUsePattern" opacity="0.18"><pattern id="pattern_L1_133" width="350" height="350" patternUnits="userSpaceOnUse"><use xlink:href="#L1_133" x="-350" y="-350"/><use xlink:href="#L1_133" x="0" y="-350"/><use xlink:href="#L1_133" x="350" y="-350"/><use xlink:href="#L1_133" x="-350" y="0"/><use xlink:href="#L1_133" x="0" y="0"/><use xlink:href="#L1_133" x="350" y="0"/><use xlink:href="#L1_133" x="-350" y="350"/><use xlink:href="#L1_133" x="0" y="350"/><use xlink:href="#L1_133" x="350" y="350"/></pattern><rect x="0" y="0" width="100%" height="100%" fill="url(#pattern_L1_133)"/></g></svg>