<svg height="487pt" viewBox="0 -23 487.83794 487" width="487pt" xmlns="http://www.w3.org/2000/svg"><g fill="#e58d23"><path d="m333.410156 89.351562 1.289063-78.226562c.097656-6.140625-6.425781-7.570312-9.703125-2.121094l-41.730469 69.375c-2.34375 3.902344-6.832031 4.558594-8.839844 1.292969l-27.023437-43.941406c-2.726563-4.4375-9.28125-1.378907-10.007813 4.671875l-20.945312 174.535156c-.015625.101562-.023438.203125-.039063.304688l-.035156.300781h.003906c-1 8.613281-.210937 16.832031 2.09375 24.066406 4.484375 18.496094 16.628906 32.597656 33.917969 36.382813 17.707031 3.875 36.605469-3.988282 50.8125-19.121094 5.523437-5.25 10.320313-11.789063 13.917969-19.285156l.003906.003906.132812-.28125c.042969-.09375.089844-.1875.132813-.285156l77.199219-162.226563c2.675781-5.625-1.414063-11.011719-6.246094-8.230469l-47.863281 27.558594c-3.550781 2.046875-7.140625-.375-7.070313-4.773438zm0 0"/><path d="m123.574219 78.390625-88.414063-51.632813c-6.941406-4.054687-12.875 1.878907-8.820312 8.820313l51.632812 88.410156c2.90625 4.972657.695313 10.105469-4.355468 10.113281l-67.96875.128907c-6.863282.015625-7.695313 8.859375-1.269532 13.511719l185.339844 134.191406c.109375.078125.21875.15625.324219.234375l.320312.230469.003907-.003907c9.167968 6.589844 19.066406 11.042969 28.839843 13.269531 24.066407 7.183594 48.171875 3.5 63.894531-12.222656 16.101563-16.105468 19.597657-41 11.699219-65.644531-2.347656-9.175781-6.644531-18.417969-12.824219-27.011719l.003907-.003906-.230469-.320312c-.078125-.105469-.15625-.214844-.234375-.324219l-134.191406-185.339844c-4.648438-6.421875-13.496094-5.59375-13.507813 1.269531l-.128906 67.964844c-.007812 5.050781-5.140625 7.261719-10.113281 4.359375zm0 0"/><path d="m295.292969 228.839844 136.992187-39.980469c7.117188-2.078125 11.308594 6.800781 5.472656 11.597656l-130.453124 107.261719-40.847657-40.84375zm0 0"/><path d="m201.898438 217.503906c-57.75-40.066406-125.46875-83.40625-128.28125-83.402344l-67.96875.128907c-6.863282.015625-7.695313 8.859375-1.269532 13.511719l111.941406 81.046874-76.847656 10.132813c-6.039062.792969-9.023437 7.378906-4.554687 10.058594l44.253906 26.507812c3.285156 1.972657 2.683594 6.464844-1.191406 8.855469l-68.882813 42.535156c-5.410156 3.339844-3.90625 9.847656 2.234375 9.675782l78.203125-2.195313c4.398438-.125 6.859375 3.433594 4.855469 7.015625l-27 48.175781c-2.722656 4.867188 2.710937 8.890625 8.300781 6.152344l144.175782-70.679687-31.421876 107.675781c-2.078124 7.117187 6.800782 11.308593 11.597657 5.472656l107.261719-130.453125 10.585937-8.703125-42.4375-29.574219zm0 0"/></g><path d="m232.070312 307.039062-65.015624 31.875c-5.59375 2.738282-11.027344-1.289062-8.300782-6.152343l27-48.175781c2.003906-3.582032-.460937-7.140626-4.855468-7.019532l-78.203126 2.199219c-6.140624.171875-7.644531-6.335937-2.238281-9.675781l68.886719-42.535156c3.875-2.390626 4.476562-6.882813 1.1875-8.855469l-44.253906-26.511719c-4.46875-2.675781-1.484375-9.261719 4.558594-10.058594l15.753906-2.078125c-38.722656-25.65625-71.046875-45.953125-72.972656-45.949219l-67.96875.128907c-6.863282.015625-7.695313 8.859375-1.269532 13.511719l111.941406 81.046874-76.847656 10.132813c-6.039062.792969-9.023437 7.378906-4.554687 10.058594l44.253906 26.507812c3.285156 1.972657 2.683594 6.464844-1.191406 8.855469l-68.882813 42.535156c-5.410156 3.339844-3.90625 9.847656 2.234375 9.675782l78.203125-2.195313c4.398438-.125 6.859375 3.433594 4.855469 7.015625l-27 48.175781c-2.722656 4.867188 2.710937 8.890625 8.300781 6.152344l144.175782-70.679687-31.421876 107.675781c-2.078124 7.117187 6.800782 11.308593 11.597657 5.472656l95.480469-116.125-72.246094 87.867187zm0 0" fill="#bf6c0d"/><path d="m477.828125 437.839844c-1.625 0-3.269531-.398438-4.792969-1.234375l-96.855468-53.046875c-10.527344-5.765625-20.167969-12.996094-28.660157-21.480469l-195.171875-195.175781c-3.90625-3.90625-3.90625-10.238282 0-14.140625 3.90625-3.90625 10.234375-3.90625 14.140625 0l195.171875 195.171875c7.144532 7.148437 15.265625 13.230468 24.125 18.085937l96.855469 53.046875c4.84375 2.652344 6.621094 8.730469 3.964844 13.574219-1.816407 3.320313-5.242188 5.199219-8.777344 5.199219zm0 0" fill="#a56021"/><path d="m178.226562 290.472656c-2.710937 0-5.175781-1.855468-5.832031-4.613281-.765625-3.222656 1.226563-6.457031 4.449219-7.226563l59.851562-14.25c14.023438-3.335937 24.742188-14.136718 27.972657-28.1875l13.542969-58.890624c.742187-3.226563 3.957031-5.242188 7.191406-4.503907 3.230468.746094 5.246094 3.964844 4.5 7.195313l-13.539063 58.890625c-4.261719 18.527343-18.394531 32.769531-36.890625 37.171875l-59.851562 14.25c-.464844.113281-.933594.164062-1.394532.164062zm0 0" fill="#a56021"/><path d="m321.628906 200.625c-.863281 0-1.742187-.1875-2.574218-.585938-2.992188-1.421874-4.261719-5.003906-2.839844-7.996093l38.964844-81.875c1.421874-2.992188 5.003906-4.265625 7.996093-2.839844 2.992188 1.421875 4.261719 5.003906 2.839844 7.992187l-38.964844 81.878907c-1.027343 2.160156-3.175781 3.425781-5.421875 3.425781zm0 0" fill="#ffb74b"/><path d="m339.289062 234.851562c-2.597656 0-4.992187-1.703124-5.753906-4.320312-.929687-3.179688.898438-6.511719 4.078125-7.441406l44.28125-12.921875c3.175781-.929688 6.511719.898437 7.441407 4.082031.929687 3.179688-.898438 6.511719-4.078126 7.4375l-44.285156 12.921875c-.5625.164063-1.125.242187-1.683594.242187zm0 0" fill="#ffb74b"/><path d="m135.355469 129.273438c0 9.664062-7.835938 17.5-17.5 17.5-9.667969 0-17.5-7.835938-17.5-17.5 0-9.667969 7.832031-17.5 17.5-17.5 9.664062 0 17.5 7.832031 17.5 17.5zm0 0" fill="#bf6c0d"/><path d="m278.558594 310.359375c0 9.664063-7.835938 17.5-17.5 17.5-9.664063 0-17.5-7.835937-17.5-17.5 0-9.667969 7.835937-17.5 17.5-17.5 9.664062 0 17.5 7.832031 17.5 17.5zm0 0" fill="#bf6c0d"/></svg>